{"url":"https://api.github.com/repos/k4yt3x/video2x/issues/419","repository_url":"https://api.github.com/repos/k4yt3x/video2x","labels_url":"https://api.github.com/repos/k4yt3x/video2x/issues/419/labels{/name}","comments_url":"https://api.github.com/repos/k4yt3x/video2x/issues/419/comments","events_url":"https://api.github.com/repos/k4yt3x/video2x/issues/419/events","html_url":"https://github.com/k4yt3x/video2x/issues/419","id":752373456,"node_id":"MDU6SXNzdWU3NTIzNzM0NTY=","number":419,"title":"Video2X Doesn't Recognise Many Valid MP4 Files as Videos","user":{"login":"Mrjamin","id":50577092,"node_id":"MDQ6VXNlcjUwNTc3MDky","avatar_url":"https://avatars.githubusercontent.com/u/50577092?v=4","gravatar_id":"","url":"https://api.github.com/users/Mrjamin","html_url":"https://github.com/Mrjamin","followers_url":"https://api.github.com/users/Mrjamin/followers","following_url":"https://api.github.com/users/Mrjamin/following{/other_user}","gists_url":"https://api.github.com/users/Mrjamin/gists{/gist_id}","starred_url":"https://api.github.com/users/Mrjamin/starred{/owner}{/repo}","subscriptions_url":"https://api.github.com/users/Mrjamin/subscriptions","organizations_url":"https://api.github.com/users/Mrjamin/orgs","repos_url":"https://api.github.com/users/Mrjamin/repos","events_url":"https://api.github.com/users/Mrjamin/events{/privacy}","received_events_url":"https://api.github.com/users/Mrjamin/received_events","type":"User","site_admin":false},"labels":[{"id":847238629,"node_id":"MDU6TGFiZWw4NDcyMzg2Mjk=","url":"https://api.github.com/repos/k4yt3x/video2x/labels/duplicate","name":"duplicate","color":"cccccc","default":true,"description":"This issue or pull request already exists"}],"state":"closed","locked":false,"assignee":{"login":"k4yt3x","id":21986859,"node_id":"MDQ6VXNlcjIxOTg2ODU5","avatar_url":"https://avatars.githubusercontent.com/u/21986859?v=4","gravatar_id":"","url":"https://api.github.com/users/k4yt3x","html_url":"https://github.com/k4yt3x","followers_url":"https://api.github.com/users/k4yt3x/followers","following_url":"https://api.github.com/users/k4yt3x/following{/other_user}","gists_url":"https://api.github.com/users/k4yt3x/gists{/gist_id}","starred_url":"https://api.github.com/users/k4yt3x/starred{/owner}{/repo}","subscriptions_url":"https://api.github.com/users/k4yt3x/subscriptions","organizations_url":"https://api.github.com/users/k4yt3x/orgs","repos_url":"https://api.github.com/users/k4yt3x/repos","events_url":"https://api.github.com/users/k4yt3x/events{/privacy}","received_events_url":"https://api.github.com/users/k4yt3x/received_events","type":"User","site_admin":false},"assignees":[{"login":"k4yt3x","id":21986859,"node_id":"MDQ6VXNlcjIxOTg2ODU5","avatar_url":"https://avatars.githubusercontent.com/u/21986859?v=4","gravatar_id":"","url":"https://api.github.com/users/k4yt3x","html_url":"https://github.com/k4yt3x","followers_url":"https://api.github.com/users/k4yt3x/followers","following_url":"https://api.github.com/users/k4yt3x/following{/other_user}","gists_url":"https://api.github.com/users/k4yt3x/gists{/gist_id}","starred_url":"https://api.github.com/users/k4yt3x/starred{/owner}{/repo}","subscriptions_url":"https://api.github.com/users/k4yt3x/subscriptions","organizations_url":"https://api.github.com/users/k4yt3x/orgs","repos_url":"https://api.github.com/users/k4yt3x/repos","events_url":"https://api.github.com/users/k4yt3x/events{/privacy}","received_events_url":"https://api.github.com/users/k4yt3x/received_events","type":"User","site_admin":false}],"milestone":null,"comments":2,"created_at":"2020-11-27T16:46:48Z","updated_at":"2020-12-13T22:00:29Z","closed_at":"2020-12-13T22:00:12Z","author_association":"NONE","active_lock_reason":null,"body":"## Component Versions\r\nvideo2x-4.7.0-win32-full.zip\r\n\r\nPlease at least fill in the release version and GUI or CLI version.\r\n\r\n- **Video2X release version**:   4.7.0 full\r\n- **Upscaler version**:\r\n- **GUI version**:\r\n- **CLI version**:\r\n\r\n## Symptom\r\n\r\nVideo2x exits the upscale process immediately after \"start\" is pressed in the GUI, with the following error showing in the command window:\r\n\r\n[!] ERROR: File D:\\{filename}.mp4 (inode/blockdevice) neither an image nor a video\r\n\r\nThe video in question is a valid .MP4 video file.  It was created using Adobe Media Encoder CC 2020 from a SD .AVI source video (originally captured from PAL DV tape).  \r\n\r\nTo test this as a bug, I created several different encodes from the original AVI file with both Adobe Media Encoder and also Handbrake.  None of the .MP4 files created with AME are recognised as 'videos' by Video2x, and only one of the .MP4 files created with Handbrake were recognised.  All the videos were compressed as h264/x264.\r\n\r\nThe output from MediaInfo for each file is as follows (only the last one was recognised by Video2X as a video):\r\n\r\n**1) Original AVI file (not recognised as a video by Video2x):**\r\n\r\nGeneral\r\nComplete name                            : D:\\{filename}.avi\r\nFormat                                   : AVI\r\nFormat/Info                              : Audio Video Interleave\r\nCommercial name                          : DVCAM\r\nFormat profile                           : OpenDML\r\nFile size                                : 11.7 GiB\r\nDuration                                 : 55 min 11 s\r\nOverall bit rate mode                    : Constant\r\nOverall bit rate                         : 30.3 Mb/s\r\nRecorded date                            : 2009-02-23T00:37:31.00032Z\r\n\r\nVideo\r\nID                                       : 0\r\nFormat                                   : DV\r\nCommercial name                          : DVCAM\r\nCodec ID                                 : dvsd\r\nCodec ID/Hint                            : Sony\r\nDuration                                 : 55 min 11 s\r\nBit rate mode                            : Constant\r\nBit rate                                 : 24.4 Mb/s\r\nWidth                                    : 720 pixels\r\nHeight                                   : 576 pixels\r\nDisplay aspect ratio                     : 4:3\r\nFrame rate mode                          : Constant\r\nFrame rate                               : 25.000 FPS\r\nStandard                                 : PAL\r\nColor space                              : YUV\r\nChroma subsampling                       : 4:2:0\r\nBit depth                                : 8 bits\r\nScan type                                : Interlaced\r\nScan order                               : Bottom Field First\r\nCompression mode                         : Lossy\r\nBits/(Pixel*Frame)                       : 2.357\r\nTime code of first frame                 : 00:00:00:00 / 00:00:00:00\r\nTime code source                         : Adobe tc_A / Adobe tc_O\r\nStream size                              : 11.1 GiB (95%)\r\n\r\nAudio\r\nID                                       : 1\r\nFormat                                   : PCM\r\nFormat settings                          : Little / Signed\r\nCodec ID                                 : 1\r\nDuration                                 : 55 min 11 s\r\nBit rate mode                            : Constant\r\nBit rate                                 : 1 536 kb/s\r\nChannel(s)                               : 2 channels\r\nSampling rate                            : 48.0 kHz\r\nBit depth                                : 16 bits\r\nStream size                              : 606 MiB (5%)\r\nAlignment                                : Aligned on interleaves\r\nInterleave, duration                     : 1000  ms (25.00 video frames)\r\nInterleave, preload duration             : 1000  ms\r\n\r\n**2) h264 .MP4 encoded with Adobe ME (not recognised as a video by Video2x):**\r\n\r\nGeneral\r\nComplete name                            : D:\\{filename}.mp4\r\nFormat                                   : MPEG-4\r\nFormat profile                           : Base Media / Version 2\r\nCodec ID                                 : mp42 (mp42/mp41)\r\nFile size                                : 4.44 GiB\r\nDuration                                 : 55 min 11 s\r\nOverall bit rate mode                    : Variable\r\nOverall bit rate                         : 11.5 Mb/s\r\nEncoded date                             : UTC 2020-11-26 16:59:04\r\nTagged date                              : UTC 2020-11-26 17:00:24\r\nTIM                                      : 00:00:00:00\r\nTSC                                      : 25\r\nTSZ                                      : 1\r\n\r\nVideo\r\nID                                       : 1\r\nFormat                                   : AVC\r\nFormat/Info                              : Advanced Video Codec\r\nFormat profile                           : Main@L3.1\r\nFormat settings                          : CABAC / 3 Ref Frames\r\nFormat settings, CABAC                   : Yes\r\nFormat settings, Reference frames        : 3 frames\r\nFormat settings, GOP                     : M=1, N=30\r\nCodec ID                                 : avc1\r\nCodec ID/Info                            : Advanced Video Coding\r\nDuration                                 : 55 min 11 s\r\nBit rate                                 : 7 339 kb/s\r\nWidth                                    : 720 pixels\r\nHeight                                   : 576 pixels\r\nDisplay aspect ratio                     : 1.85:1\r\nFrame rate mode                          : Constant\r\nFrame rate                               : 25.000 FPS\r\nStandard                                 : PAL\r\nColor space                              : YUV\r\nChroma subsampling                       : 4:2:0\r\nBit depth                                : 8 bits\r\nScan type                                : Progressive\r\nBits/(Pixel*Frame)                       : 0.708\r\nStream size                              : 2.83 GiB (64%)\r\nLanguage                                 : English\r\nEncoded date                             : UTC 2020-11-26 16:59:04\r\nTagged date                              : UTC 2020-11-26 16:59:04\r\nCodec configuration box                  : avcC\r\n\r\nAudio\r\nID                                       : 2\r\nFormat                                   : AAC LC\r\nFormat/Info                              : Advanced Audio Codec Low Complexity\r\nCodec ID                                 : mp4a-40-2\r\nDuration                                 : 55 min 11 s\r\nSource duration                          : 55 min 11 s\r\nBit rate mode                            : Variable\r\nBit rate                                 : 317 kb/s\r\nMaximum bit rate                         : 419 kb/s\r\nChannel(s)                               : 2 channels\r\nChannel layout                           : L R\r\nSampling rate                            : 48.0 kHz\r\nFrame rate                               : 46.875 FPS (1024 SPF)\r\nCompression mode                         : Lossy\r\nStream size                              : 125 MiB (3%)\r\nSource stream size                       : 125 MiB (3%)\r\nLanguage                                 : English\r\nEncoded date                             : UTC 2020-11-26 16:59:04\r\nTagged date                              : UTC 2020-11-26 16:59:04\r\n\r\n**3) x264 .MP4 encoded with Handbrake (not recognised as a video by Video2x):**\r\n\r\neneral\r\nComplete name                            : D:\\{filename}.mp4\r\nFormat                                   : MPEG-4\r\nFormat profile                           : Base Media / Version 2\r\nCodec ID                                 : mp42 (isom/iso2/avc1/mp41)\r\nFile size                                : 2.11 GiB\r\nDuration                                 : 55 min 11 s\r\nOverall bit rate                         : 5 464 kb/s\r\nRecorded date                            : 2009-02-23T00:37:31.00032Z\r\nEncoded date                             : UTC 2020-11-27 15:41:20\r\nTagged date                              : UTC 2020-11-27 15:41:20\r\nWriting application                      : HandBrake 1.3.3 2020061300\r\n\r\nVideo\r\nID                                       : 1\r\nFormat                                   : AVC\r\nFormat/Info                              : Advanced Video Codec\r\nFormat profile                           : High@L3.1\r\nFormat settings                          : CABAC / 4 Ref Frames\r\nFormat settings, CABAC                   : Yes\r\nFormat settings, Reference frames        : 4 frames\r\nCodec ID                                 : avc1\r\nCodec ID/Info                            : Advanced Video Coding\r\nDuration                                 : 55 min 11 s\r\nBit rate                                 : 5 140 kb/s\r\nWidth                                    : 720 pixels\r\nHeight                                   : 576 pixels\r\nDisplay aspect ratio                     : 16:9\r\nFrame rate mode                          : Constant\r\nFrame rate                               : 25.000 FPS\r\nStandard                                 : PAL\r\nColor space                              : YUV\r\nChroma subsampling                       : 4:2:0\r\nBit depth                                : 8 bits\r\nScan type                                : Progressive\r\nBits/(Pixel*Frame)                       : 0.496\r\nStream size                              : 1.98 GiB (94%)\r\nWriting library                          : x264 core 157 r2935 545de2f\r\nEncoding settings                        : cabac=1 / ref=2 / deblock=1:0:0 / analyse=0x3:0x113 / me=hex / subme=6 / psy=1 / psy_rd=1.00:0.00 / mixed_ref=1 / me_range=16 / chroma_me=1 / trellis=1 / 8x8dct=1 / cqm=0 / deadzone=21,11 / fast_pskip=1 / chroma_qp_offset=-2 / threads=12 / lookahead_threads=2 / sliced_threads=0 / nr=0 / decimate=1 / interlaced=0 / bluray_compat=0 / constrained_intra=0 / bframes=3 / b_pyramid=2 / b_adapt=1 / b_bias=0 / direct=1 / weightb=1 / open_gop=0 / weightp=1 / keyint=250 / keyint_min=25 / scenecut=40 / intra_refresh=0 / rc_lookahead=30 / rc=crf / mbtree=1 / crf=16.0 / qcomp=0.60 / qpmin=0 / qpmax=69 / qpstep=4 / vbv_maxrate=17500 / vbv_bufsize=17500 / crf_max=0.0 / nal_hrd=none / filler=0 / ip_ratio=1.40 / aq=1:1.00\r\nEncoded date                             : UTC 2020-11-27 15:41:20\r\nTagged date                              : UTC 2020-11-27 15:41:20\r\nColor range                              : Limited\r\nColor primaries                          : BT.601 PAL\r\nTransfer characteristics                 : BT.709\r\nMatrix coefficients                      : BT.601\r\nCodec configuration box                  : avcC\r\n\r\nAudio\r\nID                                       : 2\r\nFormat                                   : AAC LC\r\nFormat/Info                              : Advanced Audio Codec Low Complexity\r\nCodec ID                                 : mp4a-40-2\r\nDuration                                 : 55 min 11 s\r\nBit rate mode                            : Constant\r\nBit rate                                 : 318 kb/s\r\nChannel(s)                               : 2 channels\r\nChannel layout                           : L R\r\nSampling rate                            : 48.0 kHz\r\nFrame rate                               : 46.875 FPS (1024 SPF)\r\nCompression mode                         : Lossy\r\nStream size                              : 125 MiB (6%)\r\nTitle                                    : Stereo\r\nDefault                                  : Yes\r\nAlternate group                          : 1\r\nEncoded date                             : UTC 2020-11-27 15:41:20\r\nTagged date                              : UTC 2020-11-27 15:41:20\r\n\r\n**4) Alternative x264 .MP4 encoded with Handbrake (recognised by Video2x as a video)**\r\n\r\nGeneral\r\nComplete name                            : D:\\{filename}.mp4\r\nFormat                                   : MPEG-4\r\nFormat profile                           : Base Media / Version 2\r\nCodec ID                                 : mp42 (isom/iso2/avc1/mp41)\r\nFile size                                : 1.91 GiB\r\nDuration                                 : 55 min 11 s\r\nOverall bit rate                         : 4 962 kb/s\r\nRecorded date                            : 2009-02-23T00:37:31.00032Z\r\nEncoded date                             : UTC 2020-11-26 18:44:37\r\nTagged date                              : UTC 2020-11-26 18:44:37\r\nWriting application                      : HandBrake 1.3.3 2020061300\r\n\r\nVideo\r\nID                                       : 1\r\nFormat                                   : AVC\r\nFormat/Info                              : Advanced Video Codec\r\nFormat profile                           : High@L3.1\r\nFormat settings                          : CABAC / 5 Ref Frames\r\nFormat settings, CABAC                   : Yes\r\nFormat settings, Reference frames        : 5 frames\r\nCodec ID                                 : avc1\r\nCodec ID/Info                            : Advanced Video Coding\r\nDuration                                 : 55 min 11 s\r\nBit rate                                 : 4 639 kb/s\r\nWidth                                    : 720 pixels\r\nHeight                                   : 576 pixels\r\nDisplay aspect ratio                     : 16:9\r\nFrame rate mode                          : Constant\r\nFrame rate                               : 25.000 FPS\r\nStandard                                 : PAL\r\nColor space                              : YUV\r\nChroma subsampling                       : 4:2:0\r\nBit depth                                : 8 bits\r\nScan type                                : Progressive\r\nBits/(Pixel*Frame)                       : 0.447\r\nStream size                              : 1.79 GiB (93%)\r\nWriting library                          : x264 core 157 r2935 545de2f\r\nEncoding settings                        : cabac=1 / ref=5 / deblock=1:0:0 / analyse=0x3:0x133 / me=umh / subme=10 / psy=1 / psy_rd=1.00:0.00 / mixed_ref=1 / me_range=24 / chroma_me=1 / trellis=2 / 8x8dct=1 / cqm=0 / deadzone=21,11 / fast_pskip=1 / chroma_qp_offset=-2 / threads=12 / lookahead_threads=1 / sliced_threads=0 / nr=0 / decimate=1 / interlaced=0 / bluray_compat=0 / constrained_intra=0 / bframes=5 / b_pyramid=2 / b_adapt=2 / b_bias=0 / direct=3 / weightb=1 / open_gop=0 / weightp=2 / keyint=250 / keyint_min=25 / scenecut=40 / intra_refresh=0 / rc_lookahead=60 / rc=crf / mbtree=1 / crf=16.0 / qcomp=0.60 / qpmin=0 / qpmax=69 / qpstep=4 / vbv_maxrate=17500 / vbv_bufsize=17500 / crf_max=0.0 / nal_hrd=none / filler=0 / ip_ratio=1.40 / aq=1:1.00\r\nEncoded date                             : UTC 2020-11-26 18:44:37\r\nTagged date                              : UTC 2020-11-26 18:44:37\r\nColor range                              : Limited\r\nColor primaries                          : BT.601 PAL\r\nTransfer characteristics                 : BT.709\r\nMatrix coefficients                      : BT.601\r\nCodec configuration box                  : avcC\r\n\r\nAudio\r\nID                                       : 2\r\nFormat                                   : AAC LC\r\nFormat/Info                              : Advanced Audio Codec Low Complexity\r\nCodec ID                                 : mp4a-40-2\r\nDuration                                 : 55 min 11 s\r\nBit rate mode                            : Constant\r\nBit rate                                 : 318 kb/s\r\nChannel(s)                               : 2 channels\r\nChannel layout                           : L R\r\nSampling rate                            : 48.0 kHz\r\nFrame rate                               : 46.875 FPS (1024 SPF)\r\nCompression mode                         : Lossy\r\nStream size                              : 125 MiB (6%)\r\nTitle                                    : Stereo\r\nDefault                                  : Yes\r\nAlternate group                          : 1\r\nEncoded date                             : UTC 2020-11-26 18:44:37\r\nTagged date                              : UTC 2020-11-26 18:44:37\r\n\r\n\r\n","closed_by":{"login":"k4yt3x","id":21986859,"node_id":"MDQ6VXNlcjIxOTg2ODU5","avatar_url":"https://avatars.githubusercontent.com/u/21986859?v=4","gravatar_id":"","url":"https://api.github.com/users/k4yt3x","html_url":"https://github.com/k4yt3x","followers_url":"https://api.github.com/users/k4yt3x/followers","following_url":"https://api.github.com/users/k4yt3x/following{/other_user}","gists_url":"https://api.github.com/users/k4yt3x/gists{/gist_id}","starred_url":"https://api.github.com/users/k4yt3x/starred{/owner}{/repo}","subscriptions_url":"https://api.github.com/users/k4yt3x/subscriptions","organizations_url":"https://api.github.com/users/k4yt3x/orgs","repos_url":"https://api.github.com/users/k4yt3x/repos","events_url":"https://api.github.com/users/k4yt3x/events{/privacy}","received_events_url":"https://api.github.com/users/k4yt3x/received_events","type":"User","site_admin":false},"reactions":{"url":"https://api.github.com/repos/k4yt3x/video2x/issues/419/reactions","total_count":0,"+1":0,"-1":0,"laugh":0,"hooray":0,"confused":0,"heart":0,"rocket":0,"eyes":0},"timeline_url":"https://api.github.com/repos/k4yt3x/video2x/issues/419/timeline","performed_via_github_app":null,"state_reason":"completed"}